<svg width="28" height="28" viewBox="0 0 28 28" fill="none" xmlns="http://www.w3.org/2000/svg">
<path fill-rule="evenodd" clip-rule="evenodd" d="M5.5998 5.59961C4.8572 5.59961 4.14501 5.89461 3.61991 6.41971C3.0948 6.94481 2.7998 7.657 2.7998 8.39961V13.9996C2.7998 14.7422 3.0948 15.4544 3.61991 15.9795C4.14501 16.5046 4.8572 16.7996 5.5998 16.7996V8.39961H19.5998C19.5998 7.657 19.3048 6.94481 18.7797 6.41971C18.2546 5.89461 17.5424 5.59961 16.7998 5.59961H5.5998ZM8.3998 13.9996C8.3998 13.257 8.6948 12.5448 9.21991 12.0197C9.74501 11.4946 10.4572 11.1996 11.1998 11.1996H22.3998C23.1424 11.1996 23.8546 11.4946 24.3797 12.0197C24.9048 12.5448 25.1998 13.257 25.1998 13.9996V19.5996C25.1998 20.3422 24.9048 21.0544 24.3797 21.5795C23.8546 22.1046 23.1424 22.3996 22.3998 22.3996H11.1998C10.4572 22.3996 9.74501 22.1046 9.21991 21.5795C8.6948 21.0544 8.3998 20.3422 8.3998 19.5996V13.9996ZM16.7998 19.5996C17.5424 19.5996 18.2546 19.3046 18.7797 18.7795C19.3048 18.2544 19.5998 17.5422 19.5998 16.7996C19.5998 16.057 19.3048 15.3448 18.7797 14.8197C18.2546 14.2946 17.5424 13.9996 16.7998 13.9996C16.0572 13.9996 15.345 14.2946 14.8199 14.8197C14.2948 15.3448 13.9998 16.057 13.9998 16.7996C13.9998 17.5422 14.2948 18.2544 14.8199 18.7795C15.345 19.3046 16.0572 19.5996 16.7998 19.5996Z" fill="black"/>
</svg>
