<svg width="134" height="135" viewBox="0 0 134 135" fill="none" xmlns="http://www.w3.org/2000/svg">
<ellipse cx="67.0001" cy="67.001" rx="67.0001" ry="67.001" fill="#333333"/>
<g clip-path="url(#clip0_1330_49712)">
<path d="M96.4245 72.6078V76.4824L94.2533 79.1403C94.2533 79.1403 89.1362 82.5006 88.5862 82.3703C88.0361 82.2399 86.661 80.8205 86.0241 80.2411C85.9383 80.1543 85.8729 80.0495 85.8328 79.9342C85.7928 79.8189 85.779 79.6961 85.7925 79.5748L86.9867 76.8228H84.0771L84.1133 75.1208C86.5603 73.4699 88.7545 71.4719 90.6272 69.1895L96.4245 72.6078Z" fill="white"/>
<path d="M40.0868 79.8648C37.5386 78.5206 35.1164 76.95 32.8491 75.1719C32.4468 75.3541 32.0755 75.5985 31.749 75.8961C30.9848 77.0981 30.3238 78.3628 29.7732 79.6765C29.1869 80.9512 28.5572 82.3634 27.9782 83.6453C26.9867 85.9193 26.176 87.8023 26.176 87.8023C25.9537 89.3193 26.2604 90.8666 27.0446 92.1838H34.2822C36.3232 88.6931 36.3377 88.6714 33.8045 86.1438L33.7611 86.1004C34.0361 85.8686 38.5017 81.9289 38.5017 81.9289L38.5452 81.8709C38.7768 81.8709 39.0156 81.8275 39.2689 81.7913L39.819 81.7044L40.2894 81.6102C40.9812 81.4603 41.661 81.2594 42.3232 81.0091C41.5705 80.6373 40.825 80.2559 40.0868 79.8648Z" fill="white"/>
<path fill-rule="evenodd" clip-rule="evenodd" d="M54.2797 74.8965C54.0263 75.593 53.7289 76.2728 53.3894 76.9316C53.1909 77.3411 52.9711 77.74 52.7308 78.1265C52.7308 78.1265 52.3545 81.8708 52.3545 81.8853L52.1156 84.3041C49.1954 83.6589 46.343 82.7374 43.5969 81.5521C44.9378 80.5817 46.0926 79.3771 47.0059 77.9962C45.6716 79.3017 44.0857 80.3218 42.3448 80.9945C41.5776 80.6323 40.8249 80.2702 40.0794 79.8647C37.5301 78.5225 35.1076 76.9517 32.8418 75.1717C37.0541 72.9991 39.457 66.5318 40.1301 63.041C40.1314 63.0603 40.1314 63.0797 40.1301 63.099C41.0276 64.5909 42.8949 66.8142 47.4691 70.3412C45.6813 69.4594 43.9844 68.4042 42.4027 67.1908C42.2652 67.0894 42.1204 67.0025 41.9757 66.9011C41.9033 66.8577 41.8382 66.807 41.7513 66.7635C42.6416 67.5602 43.6186 69.1824 47.1868 71.4565H47.1506C46.0087 71.0672 44.892 70.6077 43.8068 70.0804C43.8068 70.0804 43.3146 69.8632 42.7863 69.5807C42.9528 69.7401 48.8442 74.0347 49.0324 74.1651L49.72 74.2664H49.872C50.0095 74.2664 49.9298 74.2664 50.0022 74.2664L50.7911 74.3751C50.7911 74.3751 52.2459 74.6358 54.2797 74.8965Z" fill="#E7620D"/>
<path d="M92.6031 49.3816L92.5235 49.6278C92.2991 49.8813 92.0965 50.1275 91.8938 50.352C91.2642 51.0763 90.7503 51.7425 90.2943 52.3074L90.2509 52.3871C88.8034 54.2628 88.304 55.4361 88.3474 56.5876C85.7057 56.5876 76.7672 57.6812 72.3667 64.0688C71.8852 64.7438 71.4844 65.473 71.1725 66.2414C71.2808 65.0454 71.5865 63.8756 72.0772 62.7797C70.1665 64.7785 68.4584 67.1757 69.088 70.1884C68.4654 69.2237 68.106 68.1126 68.0458 66.9657C66.4535 71.3834 64.731 71.8904 63.9638 72.1583C64.6876 72.5856 65.3245 73.0346 65.9759 73.5126C63.5242 73.0133 61.0204 72.8187 58.5211 72.9333C59.5528 73.2626 60.5652 73.6494 61.5537 74.092C59.6799 73.7149 57.7759 73.5089 55.8649 73.4764C56.6683 73.6864 57.7756 74.0268 58.5863 74.3238C56.7675 73.8939 54.915 73.6225 53.0494 73.5126C51.2111 73.4112 50.0241 73.5126 49.351 73.5126C49.351 73.585 49.1194 74.0413 49.0687 74.1355C48.8806 74.0051 42.9891 69.7105 42.8227 69.5511C43.351 69.8336 43.8432 70.0508 43.8432 70.0508C44.9283 70.5781 46.0451 71.0376 47.187 71.4269H47.2232C43.655 69.1528 42.6779 67.5306 41.7877 66.7339C41.8745 66.7774 41.9397 66.8281 42.012 66.8715C42.1568 66.9729 42.3016 67.0598 42.4391 67.1612C44.0208 68.3746 45.7177 69.4298 47.5054 70.3116C42.9312 66.7556 41.0639 64.5178 40.1665 63.0694C40.1678 63.0501 40.1678 63.0307 40.1665 63.0114C35.8239 55.6678 34.1665 45.7387 35.8239 36.9395V37.0771C36.0338 37.9171 37.5971 40.1695 37.6405 40.4737C37.9047 39.6182 38.3545 38.8318 38.9578 38.1706C38.994 38.2865 39.0301 38.4024 39.0736 38.5255C39.117 38.6486 39.1677 38.7717 39.2183 38.8876C39.2635 39.0058 39.3192 39.1197 39.3848 39.228C39.444 39.3324 39.5118 39.4317 39.5875 39.5249C39.7731 44.5247 41.006 49.4297 43.2063 53.9224L80.3571 53.5169H82.2967C83.6574 53.5096 91.199 50.0334 92.6031 49.3816Z" fill="#010101"/>
<path d="M39.6239 39.5469L39.6165 39.5614L39.6091 39.5469H39.6239Z" fill="#010101"/>
<path d="M39.6235 39.547C39.5485 39.4533 39.4807 39.354 39.4208 39.2501C39.3543 39.1412 39.2962 39.0274 39.2471 38.9097C39.1914 38.7921 39.1431 38.6712 39.1023 38.5476C39.0589 38.4245 39.0227 38.3086 38.9865 38.1927C38.3819 38.8529 37.9319 39.6397 37.6693 40.4957C37.6259 40.1988 36.0698 37.9465 35.8599 37.0919C35.8573 37.0485 35.8573 37.005 35.8599 36.9615C36.198 35.1995 36.6624 33.4642 37.2495 31.7689C37.3711 31.2314 37.5583 30.7109 37.8068 30.219C37.8502 30.0742 38.4148 29.2341 39.0227 29.1979C39.3113 29.1802 39.5981 29.2539 39.8423 29.4087C40.0866 29.5634 40.2759 29.7912 40.3834 30.0597C40.7091 30.5522 39.5583 36.1939 39.6235 39.547Z" fill="white"/>
<path d="M91.3076 64.8943C89.2449 65.7054 87.5802 66.4948 87.0591 67.067L85.6116 68.7182L85.6478 68.6096L85.7708 68.2185L86.2774 66.589L86.3136 66.4804L86.4729 65.9879L86.8275 64.8436L87.0953 64.0035L87.2762 63.4531L87.4499 62.9027L87.5295 62.6275L87.7829 61.8309L88.2388 60.3824L88.3764 59.9696L88.8178 58.5791C88.8488 58.6799 88.885 58.779 88.9264 58.876C89.1508 59.4409 89.4258 60.0855 89.7153 60.8459L90.4391 62.7072C90.7358 63.5545 91.0398 64.3077 91.3076 64.8943Z" fill="white"/>
<path fill-rule="evenodd" clip-rule="evenodd" d="M49.0758 74.1289L50.0167 74.31L49.0469 74.1796L49.0758 74.1289Z" fill="#010101"/>
<path d="M55.0542 88.9533C54.8765 90.0478 54.6004 91.1241 54.2291 92.1688H46.6007C46.4811 92.0168 46.3836 91.8485 46.3111 91.6691L45.0301 88.4753L44.8998 88.1349L44.3136 85.296L43.5464 81.5952L43.597 81.5518C46.3431 82.737 49.1955 83.6585 52.1157 84.3038L52.0072 85.3829L52.1157 85.9261C54.3449 87.4686 55.0542 87.7801 55.0542 88.9533Z" fill="white"/>
<path d="M82.644 88.41C82.767 88.9604 82.1301 90.8289 81.9202 91.669C81.8799 91.7833 81.8149 91.8874 81.7298 91.9737C81.6448 92.0601 81.5418 92.1266 81.4281 92.1687H72.837C72.2652 90.9013 71.2737 88.5476 71.2737 88.5476L71.7441 81.4792L71.8382 80.0307C75.8626 79.383 79.715 77.9297 83.1651 75.7578L79.5463 85.9983C82.2315 87.7147 82.5065 87.8595 82.644 88.41Z" fill="white"/>
<path fill-rule="evenodd" clip-rule="evenodd" d="M115.778 54.0312C113.469 53.6836 113.607 49.9756 113.607 49.9756L115.488 50.1422C115.637 50.1814 115.771 50.2633 115.874 50.3778C115.977 50.4923 116.044 50.6345 116.067 50.7867C116.224 51.8761 116.125 52.9869 115.778 54.0312Z" fill="#010101"/>
<path fill-rule="evenodd" clip-rule="evenodd" d="M98.6391 45.2172C95.9757 45.0506 94.2387 46.1515 93.9781 46.557C93.3924 47.4309 92.9296 48.3813 92.603 49.3815L92.5233 49.6277L91.8937 50.3519C89.4184 53.2488 88.2748 54.5814 88.3472 56.5803C85.7055 56.5803 76.767 57.6738 72.3665 64.0615C71.885 64.7365 71.4842 65.4657 71.1723 66.2341C71.2806 65.0381 71.5863 63.8683 72.077 62.7723C70.1663 64.7712 68.4582 67.1684 69.0879 70.1811C68.4652 69.2164 68.1058 68.1052 68.0456 66.9583C66.4534 71.3761 64.7308 71.883 63.9636 72.151L64.9914 72.0351C66.4464 71.8938 67.9095 71.8527 69.3701 71.912L69.9274 71.9482C70.0722 72.1003 70.1663 72.2089 70.2386 72.2959L70.3762 72.4479L70.4413 72.5204C70.4665 72.5411 70.4885 72.5655 70.5065 72.5928L70.5933 72.6797L70.6801 72.7811L71.1072 73.2518C71.3605 73.5415 71.7079 73.9326 72.2145 74.4902C72.2145 74.7654 72.2145 74.9682 72.2145 75.1276C72.2145 75.2869 72.2145 75.439 72.1783 75.6055C72.1783 75.678 72.1783 75.7504 72.1783 75.8228C72.1783 75.8952 72.1783 75.9532 72.1783 76.0328C72.1783 76.2573 72.1783 76.5036 72.1277 76.7571C72.0336 78.0534 71.9395 79.4656 71.9106 79.9436C72.2869 79.8857 72.6343 79.8133 73.0396 79.7408C73.9299 79.5598 74.8128 79.3425 75.6741 79.0818C75.884 79.0239 76.1011 78.9587 76.311 78.8863C76.5209 78.8139 76.8611 78.7125 77.1289 78.6111C77.2397 78.579 77.3484 78.5403 77.4546 78.4952C77.7658 78.3866 78.0843 78.2634 78.3955 78.1403C78.7067 78.0172 78.96 77.9013 79.2423 77.7782L79.8502 77.503C79.8769 77.4968 79.9017 77.4844 79.9226 77.4668L80.7984 77.0467C81.1892 76.844 81.5873 76.6339 81.9709 76.4167L82.2387 76.2646C82.4341 76.1559 82.6295 76.0401 82.8104 75.9242C82.9013 75.8612 82.9955 75.8031 83.0927 75.7504L83.2013 75.6852C83.6355 74.483 83.925 73.6067 84.1928 72.9187L84.1494 75.0913C86.5963 73.4404 88.7906 71.4424 90.6633 69.16L89.4112 68.4358L87.0589 67.067L85.6114 68.7182L85.6476 68.6096L85.7706 68.2185L85.8719 67.8998C85.995 67.516 86.1325 67.0815 86.2772 66.589L86.3134 66.4804L86.4727 65.9879L86.8273 64.8436L86.8707 64.7277L87.0951 64.0035L87.276 63.4531L87.4497 62.9027C87.5511 62.584 87.6596 62.2509 87.7682 61.896V61.8309L87.8334 61.6208C87.913 61.3818 87.9853 61.1356 88.0577 60.8966L88.2169 60.4041L88.3544 59.9913L88.767 58.6805C89.2302 60.1869 90.0915 62.1205 91.3147 64.916C91.4884 65.3288 91.6548 65.6403 91.7996 65.9372C91.8907 66.1655 92.0345 66.369 92.2194 66.531C92.5089 66.7049 95.3098 68.4213 97.2278 69.4641C99.6452 70.7822 101.028 68.5444 102.613 66.2848C102.613 65.9589 102.728 56.9713 102.794 51.8004V49.8595L103.648 51.4021L107.382 49.6857H107.433C107.324 48.9614 105.037 45.6228 98.6391 45.2172Z" fill="#E7620D"/>
<path d="M72.193 74.5129C72.193 74.7881 72.193 74.9909 72.193 75.1502C72.193 75.3096 72.193 75.4979 72.1568 75.6282C72.1568 75.7006 72.1568 75.7658 72.1568 75.8455C72.1568 75.9251 72.1568 75.9758 72.1568 76.0555C72.1568 76.1352 72.1568 76.4393 72.1568 76.7797L69.1677 76.6711C69.0664 76.6711 59.6429 75.5196 54.3884 74.8605C52.3546 74.5998 50.9506 74.4115 50.9216 74.3826L50.1327 74.2739C50.0603 74.2739 50.1327 74.2739 50.0024 74.2739H49.8504L49.1628 74.1725C49.2135 74.0784 49.4162 73.6221 49.4451 73.5497C50.1182 73.5497 51.3052 73.4266 53.1435 73.5497C55.0091 73.6596 56.8616 73.931 58.6803 74.3608C57.8697 74.0639 56.7624 73.7235 55.959 73.5135C57.87 73.546 59.774 73.752 61.6478 74.1291C60.6593 73.6865 59.6469 73.2996 58.6152 72.9703C61.1145 72.8557 63.6183 73.0503 66.07 73.5497C65.4186 73.0717 64.7527 72.6227 64.0579 72.1954L65.0856 72.0795C66.5405 71.9344 68.0038 71.8933 69.4644 71.9564L70.0217 71.9926C70.1665 72.1447 70.2606 72.2533 70.3329 72.3403L70.4704 72.4923L70.5356 72.5648C70.5608 72.5855 70.5828 72.6099 70.6007 72.6372L70.6876 72.7241L70.7744 72.8255L71.2015 73.2962C71.339 73.5859 71.6864 73.9553 72.193 74.5129Z" fill="white"/>
<path fill-rule="evenodd" clip-rule="evenodd" d="M115.778 54.0319C115.51 54.7561 114.837 56.1611 114.837 56.1611C114.432 56.8853 114.063 57.4357 113.722 57.5443C112.275 58.0223 106.304 60.2674 102.678 61.0785C102.678 58.551 102.808 49.8531 102.808 49.8531L103.669 51.4102L107.382 49.6865H107.455L113.65 49.9979C113.628 50.4107 113.599 53.7204 115.778 54.0319Z" fill="white"/>
</g>
<defs>
<clipPath id="clip0_1330_49712">
<rect width="90" height="63" fill="white" transform="translate(26.1543 29.1689)"/>
</clipPath>
</defs>
</svg>
