<svg width="18" height="18" viewBox="0 0 18 18" fill="none" xmlns="http://www.w3.org/2000/svg">
<path fill-rule="evenodd" clip-rule="evenodd" d="M16.2633 0.706956C16.6538 0.316431 17.287 0.316431 17.6775 0.706956C18.068 1.09748 18.068 1.73065 17.6775 2.12117L10.6065 9.19214L17.6777 16.2633C18.0682 16.6538 18.0682 17.287 17.6777 17.6775C17.2872 18.068 16.654 18.068 16.2635 17.6775L9.19234 10.6064L2.12117 17.6775C1.73064 18.068 1.09748 18.068 0.706956 17.6775C0.316431 17.287 0.316432 16.6538 0.706956 16.2633L7.77812 9.19214L0.707152 2.12117C0.316628 1.73065 0.316628 1.09748 0.707152 0.706956C1.09768 0.316431 1.73084 0.316431 2.12137 0.706956L9.19234 7.77793L16.2633 0.706956Z" fill="white"/>
</svg>
