<svg width="16" height="16" viewBox="0 0 16 16" fill="none" xmlns="http://www.w3.org/2000/svg">
<path d="M14.7408 4.31191L9.74084 1.56191C9.66701 1.5213 9.58411 1.5 9.49984 1.5C9.41558 1.5 9.33268 1.5213 9.25884 1.56191L4.25884 4.31191C4.18045 4.35508 4.11508 4.41849 4.06955 4.49553C4.02402 4.57257 4 4.66042 4 4.74991C4 4.8394 4.02402 4.92725 4.06955 5.0043C4.11508 5.08134 4.18045 5.14475 4.25884 5.18791L8.99984 7.79541V13.1549L7.48184 12.3199L6.99984 13.1954L9.25884 14.4379C9.33265 14.4786 9.41556 14.5 9.49984 14.5C9.58413 14.5 9.66704 14.4786 9.74084 14.4379L14.7408 11.6879C14.8193 11.6448 14.8847 11.5814 14.9302 11.5043C14.9758 11.4273 14.9998 11.3394 14.9998 11.2499V4.74991C14.9998 4.66041 14.9758 4.57255 14.9302 4.4955C14.8847 4.41846 14.8193 4.35506 14.7408 4.31191ZM9.49984 2.57091L13.4623 4.74991L9.49984 6.92891L5.53734 4.74991L9.49984 2.57091ZM13.9998 10.9544L9.99984 13.1544V7.79491L13.9998 5.59491V10.9544Z" fill="#333333"/>
<path d="M5 8H1V7H5V8Z" fill="#333333"/>
<path d="M6 12H2V11H6V12Z" fill="#333333"/>
<path d="M7 10H3V9H7V10Z" fill="#333333"/>
</svg>
