<svg width="16" height="15" viewBox="0 0 16 15" fill="none" xmlns="http://www.w3.org/2000/svg">
<path d="M15.6129 3.30323C15.3646 2.73289 15.0067 2.21605 14.5591 1.78164C14.1111 1.34594 13.583 0.999694 13.0033 0.761732C12.4023 0.514001 11.7577 0.387198 11.1068 0.388685C10.1938 0.388685 9.30292 0.636771 8.52876 1.10538C8.34355 1.21748 8.1676 1.3406 8.00092 1.47475C7.83423 1.3406 7.65828 1.21748 7.47308 1.10538C6.69892 0.636771 5.80807 0.388685 4.895 0.388685C4.23752 0.388685 3.60041 0.513647 2.99849 0.761732C2.41694 1.00063 1.89281 1.34427 1.44276 1.78164C0.994552 2.21556 0.636513 2.73252 0.388933 3.30323C0.131497 3.8968 0 4.52712 0 5.17582C0 5.78777 0.12594 6.42544 0.375969 7.07414C0.585252 7.61625 0.885287 8.17858 1.26866 8.74642C1.87614 9.64504 2.71142 10.5823 3.74858 11.5323C5.46729 13.1072 7.16934 14.1951 7.24157 14.2392L7.68051 14.5186C7.87498 14.6417 8.125 14.6417 8.31947 14.5186L8.75841 14.2392C8.83064 14.1933 10.5308 13.1072 12.2514 11.5323C13.2886 10.5823 14.1238 9.64504 14.7313 8.74642C15.1147 8.17858 15.4166 7.61625 15.624 7.07414C15.874 6.42544 16 5.78777 16 5.17582C16.0018 4.52712 15.8703 3.8968 15.6129 3.30323Z" fill="#333333"/>
</svg>
