<svg width="12" height="12" viewBox="0 0 12 12" fill="none" xmlns="http://www.w3.org/2000/svg">
<path fill-rule="evenodd" clip-rule="evenodd" d="M8.94415 0.5L3.62715 11.16H2.32715L7.64415 0.5H8.94415ZM2.366 5.57C1.703 5.57 1.131 5.375 0.676 4.985C0.221 4.582 0 4.036 0 3.334C0 2.632 0.221 2.086 0.676 1.696C1.131 1.293 1.703 1.098 2.366 1.098C3.029 1.098 3.575 1.293 4.03 1.696C4.485 2.086 4.706 2.632 4.706 3.334C4.706 4.036 4.485 4.582 4.03 4.985C3.575 5.375 3.029 5.57 2.366 5.57ZM2.36622 4.23097C3.53622 4.30897 3.53622 2.35897 2.36622 2.43697C1.15722 2.35897 1.15722 4.30897 2.36622 4.23097ZM8.87918 10.562C8.21618 10.562 7.64418 10.367 7.18918 9.97703C6.73418 9.57403 6.51318 9.02803 6.51318 8.32603C6.51318 7.62403 6.73418 7.07803 7.18918 6.68803C7.64418 6.28503 8.21618 6.09003 8.87918 6.09003C9.54218 6.09003 10.0882 6.28503 10.5432 6.68803C10.9982 7.07803 11.2192 7.62403 11.2192 8.32603C11.2192 9.02803 10.9982 9.57403 10.5432 9.97703C10.0882 10.367 9.54218 10.562 8.87918 10.562ZM8.879 9.223C10.049 9.301 10.049 7.351 8.879 7.429C7.67 7.351 7.67 9.301 8.879 9.223Z" fill="white"/>
</svg>
