<svg width="15" height="17" viewBox="0 0 15 17" fill="none" xmlns="http://www.w3.org/2000/svg">
<path d="M7.5 8.5C8.49456 8.5 9.44839 8.07857 10.1517 7.32843C10.8549 6.57828 11.25 5.56087 11.25 4.5C11.25 3.43913 10.8549 2.42172 10.1517 1.67157C9.44839 0.921427 8.49456 0.5 7.5 0.5C6.50544 0.5 5.55161 0.921427 4.84835 1.67157C4.14509 2.42172 3.75 3.43913 3.75 4.5C3.75 5.56087 4.14509 6.57828 4.84835 7.32843C5.55161 8.07857 6.50544 8.5 7.5 8.5ZM15 15.1667C15 16.5 13.75 16.5 13.75 16.5H1.25C1.25 16.5 0 16.5 0 15.1667C0 13.8333 1.25 9.83333 7.5 9.83333C13.75 9.83333 15 13.8333 15 15.1667Z" fill="#333333"/>
</svg>
