<svg width="16" height="16" viewBox="0 0 16 16" fill="none" xmlns="http://www.w3.org/2000/svg">
<path fill-rule="evenodd" clip-rule="evenodd" d="M12 8C12 10.2096 10.2096 12 8 12C5.7904 12 4 10.2096 4 8C4 5.7904 5.7904 4 8 4C10.2096 4 12 5.7904 12 8Z" stroke="#333333"/>
<path fill-rule="evenodd" clip-rule="evenodd" d="M11 8C11 9.6572 9.6572 11 8 11C6.3428 11 5 9.6572 5 8C5 6.3428 6.3428 5 8 5C9.6572 5 11 6.3428 11 8Z" stroke="#333333"/>
<mask id="mask0_262_47249" style="mask-type:alpha" maskUnits="userSpaceOnUse" x="0" y="0" width="16" height="16">
<path fill-rule="evenodd" clip-rule="evenodd" d="M8 16C12.4192 16 16 12.4192 16 8C16 3.5808 12.4192 0 8 0C3.5808 0 0 3.5808 0 8C0 12.4192 3.5808 16 8 16ZM8 15C11.8668 15 15 11.8668 15 8C15 4.1332 11.8668 1 8 1C4.1332 1 1 4.1332 1 8C1 11.8668 4.1332 15 8 15Z" fill="white"/>
</mask>
<g mask="url(#mask0_262_47249)">
<path d="M16.2296 -3.32613L-0.228342 19.3263" stroke="#333333"/>
<path d="M8.00065 -6V22" stroke="#333333"/>
<path d="M21.3153 3.67385L-5.31433 12.3263" stroke="#333333"/>
<path d="M21.3146 12.3262L-5.31496 3.67371" stroke="#333333"/>
<path d="M16.2293 19.3262L-0.228647 -3.32626" stroke="#333333"/>
</g>
</svg>
