<svg width="30" height="30" viewBox="0 0 30 30" fill="none" xmlns="http://www.w3.org/2000/svg">
<path fill-rule="evenodd" clip-rule="evenodd" d="M13.555 12.2254C12.8469 11.7421 6.1352 11.4112 0.0182704 14.6445C0.00730816 14.8876 0 15.1315 0 15.3779C0 16.2924 0.0824198 17.1873 0.232237 18.0577C1.83557 16.595 3.76695 15.2423 5.8989 14.3602C9.92367 12.6936 13.9338 12.4834 13.555 12.2254ZM13.9805 9.70828C13.5318 9.24833 9.23911 7.95175 2.22653 9.74491C1.75799 9.8652 1.31869 9.98799 0.902125 10.1133C0.628881 10.885 0.416538 11.6858 0.265503 12.5083C1.45024 11.9614 2.86761 11.4398 4.55702 11.009C11.7076 9.18465 14.4287 10.1686 13.9805 9.70828ZM13.9641 6.72725C18.2451 6.68271 21.5334 5.66168 23.4473 7.78575C23.8074 8.18451 24.0636 8.597 24.241 9.00991C24.5216 9.72625 24.5687 10.3818 24.5687 10.7223C24.5687 11.4041 23.9114 11.5839 23.2118 11.9261C23.0458 12.0068 22.9394 12.0788 22.876 12.1429C22.8314 12.1767 22.7961 12.2462 22.7989 12.3119C22.9134 13.7434 23.1891 14.7311 22.5021 15.1315C22.142 15.2889 21.6523 15.3746 20.9572 15.3417C18.7701 15.2389 17.4903 15.1682 16.1448 16.3066C14.7985 17.4454 14.4497 19.3909 14.4497 19.3909C14.4497 19.3909 14.3389 19.7185 14.7477 19.6827C15.9231 19.5799 16.0441 19.552 16.0441 19.552C16.0441 19.552 18.2256 19.2348 19.3697 20.2704C20.5139 21.3052 21.1927 22.3204 23.0007 23.3069C23.6795 23.6777 26.4522 24.9369 26.6702 25.0347C28.7514 22.3953 29.9999 19.0367 29.9999 15.3779C29.9999 6.88501 23.2845 0 14.9995 0C9.26297 0 4.28002 3.30327 1.75708 8.15495C4.49723 7.4898 8.63284 6.7822 13.9641 6.72725ZM7.45635 20.6842C8.4324 20.4769 10.3557 20.2762 10.6257 19.793C10.8944 19.3097 11.3991 17.8949 12.2408 16.5842C13.0828 15.2731 13.5822 14.7515 13.6163 14.5446C13.65 14.3378 11.5745 14.113 8.2095 15.114C5.89809 15.8008 3.17743 17.4804 0.72432 20.1023C1.51807 22.6234 2.92895 24.8599 4.77588 26.6256C4.95412 25.6416 5.19407 24.5802 5.50345 23.721C6.31181 21.4779 6.4799 20.891 7.45635 20.6842ZM10.2671 29.8115C9.39413 27.9592 8.11561 26.3717 8.11561 26.3717C8.11561 26.3717 7.78431 27.5009 7.43555 28.6547C8.35069 29.2046 9.32795 29.6574 10.3548 30C10.3255 29.9367 10.2975 29.8747 10.2671 29.8115ZM24.6322 27.1637C23.5871 28.0624 22.421 28.8146 21.1624 29.3969C19.8246 27.4797 18.0974 24.0378 18.0974 24.0378C18.0974 24.0378 19.594 25.3498 22.4324 26.4124C23.2355 26.7121 24.0138 26.9702 24.6322 27.1637Z" fill="#515151"/>
</svg>
