<svg width="14" height="14" viewBox="0 0 14 14" fill="none" xmlns="http://www.w3.org/2000/svg">
<path fill-rule="evenodd" clip-rule="evenodd" d="M0 2C0 1.44772 0.447715 1 1 1H13C13.5523 1 14 1.44772 14 2C14 2.55228 13.5523 3 13 3H1C0.447716 3 0 2.55228 0 2ZM0 7C0 6.44772 0.447715 6 1 6H13C13.5523 6 14 6.44772 14 7C14 7.55228 13.5523 8 13 8H1C0.447716 8 0 7.55228 0 7ZM1 11C0.447715 11 0 11.4477 0 12C0 12.5523 0.447716 13 1 13H13C13.5523 13 14 12.5523 14 12C14 11.4477 13.5523 11 13 11H1Z" fill="#333333"/>
</svg>
